<?xml version="1.0" encoding="utf-8" standalone="no"?>
<!DOCTYPE svg PUBLIC "-//W3C//DTD SVG 1.1//EN"
  "http://www.w3.org/Graphics/SVG/1.1/DTD/svg11.dtd">
<svg xmlns:xlink="http://www.w3.org/1999/xlink" width="720pt" height="360pt" viewBox="0 0 720 360" xmlns="http://www.w3.org/2000/svg" version="1.1">
 <metadata>
  <rdf:RDF xmlns:dc="http://purl.org/dc/elements/1.1/" xmlns:cc="http://creativecommons.org/ns#" xmlns:rdf="http://www.w3.org/1999/02/22-rdf-syntax-ns#">
   <cc:Work>
    <dc:type rdf:resource="http://purl.org/dc/dcmitype/StillImage"/>
    <dc:date>2025-10-10T14:35:56.233328</dc:date>
    <dc:format>image/svg+xml</dc:format>
    <dc:creator>
     <cc:Agent>
      <dc:title>Matplotlib v3.10.7, https://matplotlib.org/</dc:title>
     </cc:Agent>
    </dc:creator>
   </cc:Work>
  </rdf:RDF>
 </metadata>
 <defs>
  <style type="text/css">*{stroke-linejoin: round; stroke-linecap: butt}</style>
 </defs>
 <g id="figure_1">
  <g id="patch_1">
   <path d="M 0 360 
L 720 360 
L 720 0 
L 0 0 
z
" style="fill: #ffffff"/>
  </g>
  <g id="axes_1">
   <g id="patch_2">
    <path d="M 45.03 303.135464 
L 709.2 303.135464 
L 709.2 25.44 
L 45.03 25.44 
z
" style="fill: #ffffff"/>
   </g>
   <g id="matplotlib.axis_1">
    <g id="xtick_1">
     <g id="line2d_1">
      <path d="M 75.219545 303.135464 
L 75.219545 25.44 
" clip-path="url(#p2b500528f2)" style="fill: none; stroke: #cccccc; stroke-width: 0.8; stroke-linecap: round"/>
     </g>
     <g id="line2d_2"/>
     <g id="text_1">
      <!-- 03-15 00 -->
      <g style="fill: #262626" transform="translate(40.040796 332.57103) rotate(-30) scale(0.1 -0.1)">
       <defs>
        <path id="ArialMT-30" d="M 266 2259 
Q 266 3072 433 3567 
Q 600 4063 929 4331 
Q 1259 4600 1759 4600 
Q 2128 4600 2406 4451 
Q 2684 4303 2865 4023 
Q 3047 3744 3150 3342 
Q 3253 2941 3253 2259 
Q 3253 1453 3087 958 
Q 2922 463 2592 192 
Q 2263 -78 1759 -78 
Q 1097 -78 719 397 
Q 266 969 266 2259 
z
M 844 2259 
Q 844 1131 1108 757 
Q 1372 384 1759 384 
Q 2147 384 2411 759 
Q 2675 1134 2675 2259 
Q 2675 3391 2411 3762 
Q 2147 4134 1753 4134 
Q 1366 4134 1134 3806 
Q 844 3388 844 2259 
z
" transform="scale(0.015625)"/>
        <path id="ArialMT-33" d="M 269 1209 
L 831 1284 
Q 928 806 1161 595 
Q 1394 384 1728 384 
Q 2125 384 2398 659 
Q 2672 934 2672 1341 
Q 2672 1728 2419 1979 
Q 2166 2231 1775 2231 
Q 1616 2231 1378 2169 
L 1441 2663 
Q 1497 2656 1531 2656 
Q 1891 2656 2178 2843 
Q 2466 3031 2466 3422 
Q 2466 3731 2256 3934 
Q 2047 4138 1716 4138 
Q 1388 4138 1169 3931 
Q 950 3725 888 3313 
L 325 3413 
Q 428 3978 793 4289 
Q 1159 4600 1703 4600 
Q 2078 4600 2393 4439 
Q 2709 4278 2876 4000 
Q 3044 3722 3044 3409 
Q 3044 3113 2884 2869 
Q 2725 2625 2413 2481 
Q 2819 2388 3044 2092 
Q 3269 1797 3269 1353 
Q 3269 753 2831 336 
Q 2394 -81 1725 -81 
Q 1122 -81 723 278 
Q 325 638 269 1209 
z
" transform="scale(0.015625)"/>
        <path id="ArialMT-2d" d="M 203 1375 
L 203 1941 
L 1931 1941 
L 1931 1375 
L 203 1375 
z
" transform="scale(0.015625)"/>
        <path id="ArialMT-31" d="M 2384 0 
L 1822 0 
L 1822 3584 
Q 1619 3391 1289 3197 
Q 959 3003 697 2906 
L 697 3450 
Q 1169 3672 1522 3987 
Q 1875 4303 2022 4600 
L 2384 4600 
L 2384 0 
z
" transform="scale(0.015625)"/>
        <path id="ArialMT-35" d="M 266 1200 
L 856 1250 
Q 922 819 1161 601 
Q 1400 384 1738 384 
Q 2144 384 2425 690 
Q 2706 997 2706 1503 
Q 2706 1984 2436 2262 
Q 2166 2541 1728 2541 
Q 1456 2541 1237 2417 
Q 1019 2294 894 2097 
L 366 2166 
L 809 4519 
L 3088 4519 
L 3088 3981 
L 1259 3981 
L 1013 2750 
Q 1425 3038 1878 3038 
Q 2478 3038 2890 2622 
Q 3303 2206 3303 1553 
Q 3303 931 2941 478 
Q 2500 -78 1738 -78 
Q 1113 -78 717 272 
Q 322 622 266 1200 
z
" transform="scale(0.015625)"/>
        <path id="ArialMT-20" transform="scale(0.015625)"/>
       </defs>
       <use xlink:href="#ArialMT-30"/>
       <use xlink:href="#ArialMT-33" transform="translate(55.615234 0)"/>
       <use xlink:href="#ArialMT-2d" transform="translate(111.230469 0)"/>
       <use xlink:href="#ArialMT-31" transform="translate(144.53125 0)"/>
       <use xlink:href="#ArialMT-35" transform="translate(200.146484 0)"/>
       <use xlink:href="#ArialMT-20" transform="translate(255.761719 0)"/>
       <use xlink:href="#ArialMT-30" transform="translate(283.544922 0)"/>
       <use xlink:href="#ArialMT-30" transform="translate(339.160156 0)"/>
      </g>
     </g>
    </g>
    <g id="xtick_2">
     <g id="line2d_3">
      <path d="M 150.693409 303.135464 
L 150.693409 25.44 
" clip-path="url(#p2b500528f2)" style="fill: none; stroke: #cccccc; stroke-width: 0.8; stroke-linecap: round"/>
     </g>
     <g id="line2d_4"/>
     <g id="text_2">
      <!-- 03-15 06 -->
      <g style="fill: #262626" transform="translate(115.514659 332.57103) rotate(-30) scale(0.1 -0.1)">
       <defs>
        <path id="ArialMT-36" d="M 3184 3459 
L 2625 3416 
Q 2550 3747 2413 3897 
Q 2184 4138 1850 4138 
Q 1581 4138 1378 3988 
Q 1113 3794 959 3422 
Q 806 3050 800 2363 
Q 1003 2672 1297 2822 
Q 1591 2972 1913 2972 
Q 2475 2972 2870 2558 
Q 3266 2144 3266 1488 
Q 3266 1056 3080 686 
Q 2894 316 2569 119 
Q 2244 -78 1831 -78 
Q 1128 -78 684 439 
Q 241 956 241 2144 
Q 241 3472 731 4075 
Q 1159 4600 1884 4600 
Q 2425 4600 2770 4297 
Q 3116 3994 3184 3459 
z
M 888 1484 
Q 888 1194 1011 928 
Q 1134 663 1356 523 
Q 1578 384 1822 384 
Q 2178 384 2434 671 
Q 2691 959 2691 1453 
Q 2691 1928 2437 2201 
Q 2184 2475 1800 2475 
Q 1419 2475 1153 2201 
Q 888 1928 888 1484 
z
" transform="scale(0.015625)"/>
       </defs>
       <use xlink:href="#ArialMT-30"/>
       <use xlink:href="#ArialMT-33" transform="translate(55.615234 0)"/>
       <use xlink:href="#ArialMT-2d" transform="translate(111.230469 0)"/>
       <use xlink:href="#ArialMT-31" transform="translate(144.53125 0)"/>
       <use xlink:href="#ArialMT-35" transform="translate(200.146484 0)"/>
       <use xlink:href="#ArialMT-20" transform="translate(255.761719 0)"/>
       <use xlink:href="#ArialMT-30" transform="translate(283.544922 0)"/>
       <use xlink:href="#ArialMT-36" transform="translate(339.160156 0)"/>
      </g>
     </g>
    </g>
    <g id="xtick_3">
     <g id="line2d_5">
      <path d="M 226.167273 303.135464 
L 226.167273 25.44 
" clip-path="url(#p2b500528f2)" style="fill: none; stroke: #cccccc; stroke-width: 0.8; stroke-linecap: round"/>
     </g>
     <g id="line2d_6"/>
     <g id="text_3">
      <!-- 03-15 12 -->
      <g style="fill: #262626" transform="translate(190.988523 332.57103) rotate(-30) scale(0.1 -0.1)">
       <defs>
        <path id="ArialMT-32" d="M 3222 541 
L 3222 0 
L 194 0 
Q 188 203 259 391 
Q 375 700 629 1000 
Q 884 1300 1366 1694 
Q 2113 2306 2375 2664 
Q 2638 3022 2638 3341 
Q 2638 3675 2398 3904 
Q 2159 4134 1775 4134 
Q 1369 4134 1125 3890 
Q 881 3647 878 3216 
L 300 3275 
Q 359 3922 746 4261 
Q 1134 4600 1788 4600 
Q 2447 4600 2831 4234 
Q 3216 3869 3216 3328 
Q 3216 3053 3103 2787 
Q 2991 2522 2730 2228 
Q 2469 1934 1863 1422 
Q 1356 997 1212 845 
Q 1069 694 975 541 
L 3222 541 
z
" transform="scale(0.015625)"/>
       </defs>
       <use xlink:href="#ArialMT-30"/>
       <use xlink:href="#ArialMT-33" transform="translate(55.615234 0)"/>
       <use xlink:href="#ArialMT-2d" transform="translate(111.230469 0)"/>
       <use xlink:href="#ArialMT-31" transform="translate(144.53125 0)"/>
       <use xlink:href="#ArialMT-35" transform="translate(200.146484 0)"/>
       <use xlink:href="#ArialMT-20" transform="translate(255.761719 0)"/>
       <use xlink:href="#ArialMT-31" transform="translate(283.544922 0)"/>
       <use xlink:href="#ArialMT-32" transform="translate(339.160156 0)"/>
      </g>
     </g>
    </g>
    <g id="xtick_4">
     <g id="line2d_7">
      <path d="M 301.641136 303.135464 
L 301.641136 25.44 
" clip-path="url(#p2b500528f2)" style="fill: none; stroke: #cccccc; stroke-width: 0.8; stroke-linecap: round"/>
     </g>
     <g id="line2d_8"/>
     <g id="text_4">
      <!-- 03-15 18 -->
      <g style="fill: #262626" transform="translate(266.462387 332.57103) rotate(-30) scale(0.1 -0.1)">
       <defs>
        <path id="ArialMT-38" d="M 1131 2484 
Q 781 2613 612 2850 
Q 444 3088 444 3419 
Q 444 3919 803 4259 
Q 1163 4600 1759 4600 
Q 2359 4600 2725 4251 
Q 3091 3903 3091 3403 
Q 3091 3084 2923 2848 
Q 2756 2613 2416 2484 
Q 2838 2347 3058 2040 
Q 3278 1734 3278 1309 
Q 3278 722 2862 322 
Q 2447 -78 1769 -78 
Q 1091 -78 675 323 
Q 259 725 259 1325 
Q 259 1772 486 2073 
Q 713 2375 1131 2484 
z
M 1019 3438 
Q 1019 3113 1228 2906 
Q 1438 2700 1772 2700 
Q 2097 2700 2305 2904 
Q 2513 3109 2513 3406 
Q 2513 3716 2298 3927 
Q 2084 4138 1766 4138 
Q 1444 4138 1231 3931 
Q 1019 3725 1019 3438 
z
M 838 1322 
Q 838 1081 952 856 
Q 1066 631 1291 507 
Q 1516 384 1775 384 
Q 2178 384 2440 643 
Q 2703 903 2703 1303 
Q 2703 1709 2433 1975 
Q 2163 2241 1756 2241 
Q 1359 2241 1098 1978 
Q 838 1716 838 1322 
z
" transform="scale(0.015625)"/>
       </defs>
       <use xlink:href="#ArialMT-30"/>
       <use xlink:href="#ArialMT-33" transform="translate(55.615234 0)"/>
       <use xlink:href="#ArialMT-2d" transform="translate(111.230469 0)"/>
       <use xlink:href="#ArialMT-31" transform="translate(144.53125 0)"/>
       <use xlink:href="#ArialMT-35" transform="translate(200.146484 0)"/>
       <use xlink:href="#ArialMT-20" transform="translate(255.761719 0)"/>
       <use xlink:href="#ArialMT-31" transform="translate(283.544922 0)"/>
       <use xlink:href="#ArialMT-38" transform="translate(339.160156 0)"/>
      </g>
     </g>
    </g>
    <g id="xtick_5">
     <g id="line2d_9">
      <path d="M 377.115 303.135464 
L 377.115 25.44 
" clip-path="url(#p2b500528f2)" style="fill: none; stroke: #cccccc; stroke-width: 0.8; stroke-linecap: round"/>
     </g>
     <g id="line2d_10"/>
     <g id="text_5">
      <!-- 03-16 00 -->
      <g style="fill: #262626" transform="translate(341.93625 332.57103) rotate(-30) scale(0.1 -0.1)">
       <use xlink:href="#ArialMT-30"/>
       <use xlink:href="#ArialMT-33" transform="translate(55.615234 0)"/>
       <use xlink:href="#ArialMT-2d" transform="translate(111.230469 0)"/>
       <use xlink:href="#ArialMT-31" transform="translate(144.53125 0)"/>
       <use xlink:href="#ArialMT-36" transform="translate(200.146484 0)"/>
       <use xlink:href="#ArialMT-20" transform="translate(255.761719 0)"/>
       <use xlink:href="#ArialMT-30" transform="translate(283.544922 0)"/>
       <use xlink:href="#ArialMT-30" transform="translate(339.160156 0)"/>
      </g>
     </g>
    </g>
    <g id="xtick_6">
     <g id="line2d_11">
      <path d="M 452.588864 303.135464 
L 452.588864 25.44 
" clip-path="url(#p2b500528f2)" style="fill: none; stroke: #cccccc; stroke-width: 0.8; stroke-linecap: round"/>
     </g>
     <g id="line2d_12"/>
     <g id="text_6">
      <!-- 03-16 06 -->
      <g style="fill: #262626" transform="translate(417.410114 332.57103) rotate(-30) scale(0.1 -0.1)">
       <use xlink:href="#ArialMT-30"/>
       <use xlink:href="#ArialMT-33" transform="translate(55.615234 0)"/>
       <use xlink:href="#ArialMT-2d" transform="translate(111.230469 0)"/>
       <use xlink:href="#ArialMT-31" transform="translate(144.53125 0)"/>
       <use xlink:href="#ArialMT-36" transform="translate(200.146484 0)"/>
       <use xlink:href="#ArialMT-20" transform="translate(255.761719 0)"/>
       <use xlink:href="#ArialMT-30" transform="translate(283.544922 0)"/>
       <use xlink:href="#ArialMT-36" transform="translate(339.160156 0)"/>
      </g>
     </g>
    </g>
    <g id="xtick_7">
     <g id="line2d_13">
      <path d="M 528.062727 303.135464 
L 528.062727 25.44 
" clip-path="url(#p2b500528f2)" style="fill: none; stroke: #cccccc; stroke-width: 0.8; stroke-linecap: round"/>
     </g>
     <g id="line2d_14"/>
     <g id="text_7">
      <!-- 03-16 12 -->
      <g style="fill: #262626" transform="translate(492.883978 332.57103) rotate(-30) scale(0.1 -0.1)">
       <use xlink:href="#ArialMT-30"/>
       <use xlink:href="#ArialMT-33" transform="translate(55.615234 0)"/>
       <use xlink:href="#ArialMT-2d" transform="translate(111.230469 0)"/>
       <use xlink:href="#ArialMT-31" transform="translate(144.53125 0)"/>
       <use xlink:href="#ArialMT-36" transform="translate(200.146484 0)"/>
       <use xlink:href="#ArialMT-20" transform="translate(255.761719 0)"/>
       <use xlink:href="#ArialMT-31" transform="translate(283.544922 0)"/>
       <use xlink:href="#ArialMT-32" transform="translate(339.160156 0)"/>
      </g>
     </g>
    </g>
    <g id="xtick_8">
     <g id="line2d_15">
      <path d="M 603.536591 303.135464 
L 603.536591 25.44 
" clip-path="url(#p2b500528f2)" style="fill: none; stroke: #cccccc; stroke-width: 0.8; stroke-linecap: round"/>
     </g>
     <g id="line2d_16"/>
     <g id="text_8">
      <!-- 03-16 18 -->
      <g style="fill: #262626" transform="translate(568.357841 332.57103) rotate(-30) scale(0.1 -0.1)">
       <use xlink:href="#ArialMT-30"/>
       <use xlink:href="#ArialMT-33" transform="translate(55.615234 0)"/>
       <use xlink:href="#ArialMT-2d" transform="translate(111.230469 0)"/>
       <use xlink:href="#ArialMT-31" transform="translate(144.53125 0)"/>
       <use xlink:href="#ArialMT-36" transform="translate(200.146484 0)"/>
       <use xlink:href="#ArialMT-20" transform="translate(255.761719 0)"/>
       <use xlink:href="#ArialMT-31" transform="translate(283.544922 0)"/>
       <use xlink:href="#ArialMT-38" transform="translate(339.160156 0)"/>
      </g>
     </g>
    </g>
    <g id="xtick_9">
     <g id="line2d_17">
      <path d="M 679.010455 303.135464 
L 679.010455 25.44 
" clip-path="url(#p2b500528f2)" style="fill: none; stroke: #cccccc; stroke-width: 0.8; stroke-linecap: round"/>
     </g>
     <g id="line2d_18"/>
     <g id="text_9">
      <!-- 03-17 00 -->
      <g style="fill: #262626" transform="translate(643.831705 332.57103) rotate(-30) scale(0.1 -0.1)">
       <defs>
        <path id="ArialMT-37" d="M 303 3981 
L 303 4522 
L 3269 4522 
L 3269 4084 
Q 2831 3619 2401 2847 
Q 1972 2075 1738 1259 
Q 1569 684 1522 0 
L 944 0 
Q 953 541 1156 1306 
Q 1359 2072 1739 2783 
Q 2119 3494 2547 3981 
L 303 3981 
z
" transform="scale(0.015625)"/>
       </defs>
       <use xlink:href="#ArialMT-30"/>
       <use xlink:href="#ArialMT-33" transform="translate(55.615234 0)"/>
       <use xlink:href="#ArialMT-2d" transform="translate(111.230469 0)"/>
       <use xlink:href="#ArialMT-31" transform="translate(144.53125 0)"/>
       <use xlink:href="#ArialMT-37" transform="translate(200.146484 0)"/>
       <use xlink:href="#ArialMT-20" transform="translate(255.761719 0)"/>
       <use xlink:href="#ArialMT-30" transform="translate(283.544922 0)"/>
       <use xlink:href="#ArialMT-30" transform="translate(339.160156 0)"/>
      </g>
     </g>
    </g>
    <g id="text_10">
     <!-- Time -->
     <g style="fill: #262626" transform="translate(366.192344 345.450068) scale(0.1 -0.1)">
      <defs>
       <path id="ArialMT-54" d="M 1659 0 
L 1659 4041 
L 150 4041 
L 150 4581 
L 3781 4581 
L 3781 4041 
L 2266 4041 
L 2266 0 
L 1659 0 
z
" transform="scale(0.015625)"/>
       <path id="ArialMT-69" d="M 425 3934 
L 425 4581 
L 988 4581 
L 988 3934 
L 425 3934 
z
M 425 0 
L 425 3319 
L 988 3319 
L 988 0 
L 425 0 
z
" transform="scale(0.015625)"/>
       <path id="ArialMT-6d" d="M 422 0 
L 422 3319 
L 925 3319 
L 925 2853 
Q 1081 3097 1340 3245 
Q 1600 3394 1931 3394 
Q 2300 3394 2536 3241 
Q 2772 3088 2869 2813 
Q 3263 3394 3894 3394 
Q 4388 3394 4653 3120 
Q 4919 2847 4919 2278 
L 4919 0 
L 4359 0 
L 4359 2091 
Q 4359 2428 4304 2576 
Q 4250 2725 4106 2815 
Q 3963 2906 3769 2906 
Q 3419 2906 3187 2673 
Q 2956 2441 2956 1928 
L 2956 0 
L 2394 0 
L 2394 2156 
Q 2394 2531 2256 2718 
Q 2119 2906 1806 2906 
Q 1569 2906 1367 2781 
Q 1166 2656 1075 2415 
Q 984 2175 984 1722 
L 984 0 
L 422 0 
z
" transform="scale(0.015625)"/>
       <path id="ArialMT-65" d="M 2694 1069 
L 3275 997 
Q 3138 488 2766 206 
Q 2394 -75 1816 -75 
Q 1088 -75 661 373 
Q 234 822 234 1631 
Q 234 2469 665 2931 
Q 1097 3394 1784 3394 
Q 2450 3394 2872 2941 
Q 3294 2488 3294 1666 
Q 3294 1616 3291 1516 
L 816 1516 
Q 847 969 1125 678 
Q 1403 388 1819 388 
Q 2128 388 2347 550 
Q 2566 713 2694 1069 
z
M 847 1978 
L 2700 1978 
Q 2663 2397 2488 2606 
Q 2219 2931 1791 2931 
Q 1403 2931 1139 2672 
Q 875 2413 847 1978 
z
" transform="scale(0.015625)"/>
      </defs>
      <use xlink:href="#ArialMT-54"/>
      <use xlink:href="#ArialMT-69" transform="translate(57.333984 0)"/>
      <use xlink:href="#ArialMT-6d" transform="translate(79.550781 0)"/>
      <use xlink:href="#ArialMT-65" transform="translate(162.851562 0)"/>
     </g>
    </g>
   </g>
   <g id="matplotlib.axis_2">
    <g id="ytick_1">
     <g id="line2d_19">
      <path d="M 45.03 258.285229 
L 709.2 258.285229 
" clip-path="url(#p2b500528f2)" style="fill: none; stroke: #cccccc; stroke-width: 0.8; stroke-linecap: round"/>
     </g>
     <g id="line2d_20"/>
     <g id="text_11">
      <!-- 280 -->
      <g style="fill: #262626" transform="translate(24.847188 261.864136) scale(0.1 -0.1)">
       <use xlink:href="#ArialMT-32"/>
       <use xlink:href="#ArialMT-38" transform="translate(55.615234 0)"/>
       <use xlink:href="#ArialMT-30" transform="translate(111.230469 0)"/>
      </g>
     </g>
    </g>
    <g id="ytick_2">
     <g id="line2d_21">
      <path d="M 45.03 204.572374 
L 709.2 204.572374 
" clip-path="url(#p2b500528f2)" style="fill: none; stroke: #cccccc; stroke-width: 0.8; stroke-linecap: round"/>
     </g>
     <g id="line2d_22"/>
     <g id="text_12">
      <!-- 282 -->
      <g style="fill: #262626" transform="translate(24.847188 208.15128) scale(0.1 -0.1)">
       <use xlink:href="#ArialMT-32"/>
       <use xlink:href="#ArialMT-38" transform="translate(55.615234 0)"/>
       <use xlink:href="#ArialMT-32" transform="translate(111.230469 0)"/>
      </g>
     </g>
    </g>
    <g id="ytick_3">
     <g id="line2d_23">
      <path d="M 45.03 150.859518 
L 709.2 150.859518 
" clip-path="url(#p2b500528f2)" style="fill: none; stroke: #cccccc; stroke-width: 0.8; stroke-linecap: round"/>
     </g>
     <g id="line2d_24"/>
     <g id="text_13">
      <!-- 284 -->
      <g style="fill: #262626" transform="translate(24.847188 154.438424) scale(0.1 -0.1)">
       <defs>
        <path id="ArialMT-34" d="M 2069 0 
L 2069 1097 
L 81 1097 
L 81 1613 
L 2172 4581 
L 2631 4581 
L 2631 1613 
L 3250 1613 
L 3250 1097 
L 2631 1097 
L 2631 0 
L 2069 0 
z
M 2069 1613 
L 2069 3678 
L 634 1613 
L 2069 1613 
z
" transform="scale(0.015625)"/>
       </defs>
       <use xlink:href="#ArialMT-32"/>
       <use xlink:href="#ArialMT-38" transform="translate(55.615234 0)"/>
       <use xlink:href="#ArialMT-34" transform="translate(111.230469 0)"/>
      </g>
     </g>
    </g>
    <g id="ytick_4">
     <g id="line2d_25">
      <path d="M 45.03 97.146662 
L 709.2 97.146662 
" clip-path="url(#p2b500528f2)" style="fill: none; stroke: #cccccc; stroke-width: 0.8; stroke-linecap: round"/>
     </g>
     <g id="line2d_26"/>
     <g id="text_14">
      <!-- 286 -->
      <g style="fill: #262626" transform="translate(24.847188 100.725569) scale(0.1 -0.1)">
       <use xlink:href="#ArialMT-32"/>
       <use xlink:href="#ArialMT-38" transform="translate(55.615234 0)"/>
       <use xlink:href="#ArialMT-36" transform="translate(111.230469 0)"/>
      </g>
     </g>
    </g>
    <g id="ytick_5">
     <g id="line2d_27">
      <path d="M 45.03 43.433807 
L 709.2 43.433807 
" clip-path="url(#p2b500528f2)" style="fill: none; stroke: #cccccc; stroke-width: 0.8; stroke-linecap: round"/>
     </g>
     <g id="line2d_28"/>
     <g id="text_15">
      <!-- 288 -->
      <g style="fill: #262626" transform="translate(24.847188 47.012713) scale(0.1 -0.1)">
       <use xlink:href="#ArialMT-32"/>
       <use xlink:href="#ArialMT-38" transform="translate(55.615234 0)"/>
       <use xlink:href="#ArialMT-38" transform="translate(111.230469 0)"/>
      </g>
     </g>
    </g>
    <g id="text_16">
     <!-- Value -->
     <g style="fill: #262626" transform="translate(18.859688 176.706482) rotate(-90) scale(0.1 -0.1)">
      <defs>
       <path id="ArialMT-56" d="M 1803 0 
L 28 4581 
L 684 4581 
L 1875 1253 
Q 2019 853 2116 503 
Q 2222 878 2363 1253 
L 3600 4581 
L 4219 4581 
L 2425 0 
L 1803 0 
z
" transform="scale(0.015625)"/>
       <path id="ArialMT-61" d="M 2588 409 
Q 2275 144 1986 34 
Q 1697 -75 1366 -75 
Q 819 -75 525 192 
Q 231 459 231 875 
Q 231 1119 342 1320 
Q 453 1522 633 1644 
Q 813 1766 1038 1828 
Q 1203 1872 1538 1913 
Q 2219 1994 2541 2106 
Q 2544 2222 2544 2253 
Q 2544 2597 2384 2738 
Q 2169 2928 1744 2928 
Q 1347 2928 1158 2789 
Q 969 2650 878 2297 
L 328 2372 
Q 403 2725 575 2942 
Q 747 3159 1072 3276 
Q 1397 3394 1825 3394 
Q 2250 3394 2515 3294 
Q 2781 3194 2906 3042 
Q 3031 2891 3081 2659 
Q 3109 2516 3109 2141 
L 3109 1391 
Q 3109 606 3145 398 
Q 3181 191 3288 0 
L 2700 0 
Q 2613 175 2588 409 
z
M 2541 1666 
Q 2234 1541 1622 1453 
Q 1275 1403 1131 1340 
Q 988 1278 909 1158 
Q 831 1038 831 891 
Q 831 666 1001 516 
Q 1172 366 1500 366 
Q 1825 366 2078 508 
Q 2331 650 2450 897 
Q 2541 1088 2541 1459 
L 2541 1666 
z
" transform="scale(0.015625)"/>
       <path id="ArialMT-6c" d="M 409 0 
L 409 4581 
L 972 4581 
L 972 0 
L 409 0 
z
" transform="scale(0.015625)"/>
       <path id="ArialMT-75" d="M 2597 0 
L 2597 488 
Q 2209 -75 1544 -75 
Q 1250 -75 995 37 
Q 741 150 617 320 
Q 494 491 444 738 
Q 409 903 409 1263 
L 409 3319 
L 972 3319 
L 972 1478 
Q 972 1038 1006 884 
Q 1059 663 1231 536 
Q 1403 409 1656 409 
Q 1909 409 2131 539 
Q 2353 669 2445 892 
Q 2538 1116 2538 1541 
L 2538 3319 
L 3100 3319 
L 3100 0 
L 2597 0 
z
" transform="scale(0.015625)"/>
      </defs>
      <use xlink:href="#ArialMT-56"/>
      <use xlink:href="#ArialMT-61" transform="translate(59.324219 0)"/>
      <use xlink:href="#ArialMT-6c" transform="translate(114.939453 0)"/>
      <use xlink:href="#ArialMT-75" transform="translate(137.15625 0)"/>
      <use xlink:href="#ArialMT-65" transform="translate(192.771484 0)"/>
     </g>
    </g>
   </g>
   <g id="line2d_29">
    <path d="M 75.219545 164.287732 
L 100.3775 201.886731 
L 125.535455 212.629302 
L 150.693409 231.428802 
L 175.851364 247.542658 
L 201.009318 263.656515 
L 226.167273 277.084729 
L 251.325227 285.141657 
L 276.483182 271.713443 
L 301.641136 260.970872 
L 326.799091 258.285229 
L 351.957045 271.713443 
L 377.115 285.141657 
L 402.272955 290.512943 
L 427.430909 285.141657 
L 452.588864 271.713443 
L 477.746818 258.285229 
L 502.904773 244.857016 
L 528.062727 236.800087 
L 553.220682 231.428802 
L 578.378636 226.057516 
L 603.536591 231.428802 
L 628.694545 236.800087 
L 653.8525 247.542658 
L 679.010455 258.285229 
" clip-path="url(#p2b500528f2)" style="fill: none; stroke: #1f77b4; stroke-width: 1.5; stroke-linecap: round"/>
    <defs>
     <path id="md32ad6af09" d="M 0 3 
C 0.795609 3 1.55874 2.683901 2.12132 2.12132 
C 2.683901 1.55874 3 0.795609 3 0 
C 3 -0.795609 2.683901 -1.55874 2.12132 -2.12132 
C 1.55874 -2.683901 0.795609 -3 0 -3 
C -0.795609 -3 -1.55874 -2.683901 -2.12132 -2.12132 
C -2.683901 -1.55874 -3 -0.795609 -3 0 
C -3 0.795609 -2.683901 1.55874 -2.12132 2.12132 
C -1.55874 2.683901 -0.795609 3 0 3 
z
" style="stroke: #1f77b4"/>
    </defs>
    <g clip-path="url(#p2b500528f2)">
     <use xlink:href="#md32ad6af09" x="75.219545" y="164.287732" style="fill: #1f77b4; stroke: #1f77b4"/>
     <use xlink:href="#md32ad6af09" x="100.3775" y="201.886731" style="fill: #1f77b4; stroke: #1f77b4"/>
     <use xlink:href="#md32ad6af09" x="125.535455" y="212.629302" style="fill: #1f77b4; stroke: #1f77b4"/>
     <use xlink:href="#md32ad6af09" x="150.693409" y="231.428802" style="fill: #1f77b4; stroke: #1f77b4"/>
     <use xlink:href="#md32ad6af09" x="175.851364" y="247.542658" style="fill: #1f77b4; stroke: #1f77b4"/>
     <use xlink:href="#md32ad6af09" x="201.009318" y="263.656515" style="fill: #1f77b4; stroke: #1f77b4"/>
     <use xlink:href="#md32ad6af09" x="226.167273" y="277.084729" style="fill: #1f77b4; stroke: #1f77b4"/>
     <use xlink:href="#md32ad6af09" x="251.325227" y="285.141657" style="fill: #1f77b4; stroke: #1f77b4"/>
     <use xlink:href="#md32ad6af09" x="276.483182" y="271.713443" style="fill: #1f77b4; stroke: #1f77b4"/>
     <use xlink:href="#md32ad6af09" x="301.641136" y="260.970872" style="fill: #1f77b4; stroke: #1f77b4"/>
     <use xlink:href="#md32ad6af09" x="326.799091" y="258.285229" style="fill: #1f77b4; stroke: #1f77b4"/>
     <use xlink:href="#md32ad6af09" x="351.957045" y="271.713443" style="fill: #1f77b4; stroke: #1f77b4"/>
     <use xlink:href="#md32ad6af09" x="377.115" y="285.141657" style="fill: #1f77b4; stroke: #1f77b4"/>
     <use xlink:href="#md32ad6af09" x="402.272955" y="290.512943" style="fill: #1f77b4; stroke: #1f77b4"/>
     <use xlink:href="#md32ad6af09" x="427.430909" y="285.141657" style="fill: #1f77b4; stroke: #1f77b4"/>
     <use xlink:href="#md32ad6af09" x="452.588864" y="271.713443" style="fill: #1f77b4; stroke: #1f77b4"/>
     <use xlink:href="#md32ad6af09" x="477.746818" y="258.285229" style="fill: #1f77b4; stroke: #1f77b4"/>
     <use xlink:href="#md32ad6af09" x="502.904773" y="244.857016" style="fill: #1f77b4; stroke: #1f77b4"/>
     <use xlink:href="#md32ad6af09" x="528.062727" y="236.800087" style="fill: #1f77b4; stroke: #1f77b4"/>
     <use xlink:href="#md32ad6af09" x="553.220682" y="231.428802" style="fill: #1f77b4; stroke: #1f77b4"/>
     <use xlink:href="#md32ad6af09" x="578.378636" y="226.057516" style="fill: #1f77b4; stroke: #1f77b4"/>
     <use xlink:href="#md32ad6af09" x="603.536591" y="231.428802" style="fill: #1f77b4; stroke: #1f77b4"/>
     <use xlink:href="#md32ad6af09" x="628.694545" y="236.800087" style="fill: #1f77b4; stroke: #1f77b4"/>
     <use xlink:href="#md32ad6af09" x="653.8525" y="247.542658" style="fill: #1f77b4; stroke: #1f77b4"/>
     <use xlink:href="#md32ad6af09" x="679.010455" y="258.285229" style="fill: #1f77b4; stroke: #1f77b4"/>
    </g>
   </g>
   <g id="line2d_30">
    <path d="M 75.219545 102.517948 
L 100.3775 124.00309 
L 125.535455 132.060019 
L 150.693409 118.631805 
L 175.851364 97.146662 
L 201.009318 62.233306 
L 226.167273 38.062521 
L 251.325227 43.433807 
L 276.483182 59.547663 
L 301.641136 83.718448 
L 326.799091 118.631805 
L 351.957045 145.488232 
L 377.115 161.602089 
L 402.272955 183.087231 
L 427.430909 212.629302 
L 452.588864 234.114444 
L 477.746818 218.000588 
L 502.904773 199.201088 
L 528.062727 164.287732 
L 553.220682 137.431304 
L 578.378636 102.517948 
L 603.536591 86.404091 
L 628.694545 97.146662 
L 653.8525 124.00309 
L 679.010455 153.545161 
" clip-path="url(#p2b500528f2)" style="fill: none; stroke: #ff7f0e; stroke-width: 1.5; stroke-linecap: round"/>
    <defs>
     <path id="meaa4b12385" d="M -3 3 
L 3 -3 
M -3 -3 
L 3 3 
" style="stroke: #ff7f0e"/>
    </defs>
    <g clip-path="url(#p2b500528f2)">
     <use xlink:href="#meaa4b12385" x="75.219545" y="102.517948" style="fill: #ff7f0e; stroke: #ff7f0e"/>
     <use xlink:href="#meaa4b12385" x="100.3775" y="124.00309" style="fill: #ff7f0e; stroke: #ff7f0e"/>
     <use xlink:href="#meaa4b12385" x="125.535455" y="132.060019" style="fill: #ff7f0e; stroke: #ff7f0e"/>
     <use xlink:href="#meaa4b12385" x="150.693409" y="118.631805" style="fill: #ff7f0e; stroke: #ff7f0e"/>
     <use xlink:href="#meaa4b12385" x="175.851364" y="97.146662" style="fill: #ff7f0e; stroke: #ff7f0e"/>
     <use xlink:href="#meaa4b12385" x="201.009318" y="62.233306" style="fill: #ff7f0e; stroke: #ff7f0e"/>
     <use xlink:href="#meaa4b12385" x="226.167273" y="38.062521" style="fill: #ff7f0e; stroke: #ff7f0e"/>
     <use xlink:href="#meaa4b12385" x="251.325227" y="43.433807" style="fill: #ff7f0e; stroke: #ff7f0e"/>
     <use xlink:href="#meaa4b12385" x="276.483182" y="59.547663" style="fill: #ff7f0e; stroke: #ff7f0e"/>
     <use xlink:href="#meaa4b12385" x="301.641136" y="83.718448" style="fill: #ff7f0e; stroke: #ff7f0e"/>
     <use xlink:href="#meaa4b12385" x="326.799091" y="118.631805" style="fill: #ff7f0e; stroke: #ff7f0e"/>
     <use xlink:href="#meaa4b12385" x="351.957045" y="145.488232" style="fill: #ff7f0e; stroke: #ff7f0e"/>
     <use xlink:href="#meaa4b12385" x="377.115" y="161.602089" style="fill: #ff7f0e; stroke: #ff7f0e"/>
     <use xlink:href="#meaa4b12385" x="402.272955" y="183.087231" style="fill: #ff7f0e; stroke: #ff7f0e"/>
     <use xlink:href="#meaa4b12385" x="427.430909" y="212.629302" style="fill: #ff7f0e; stroke: #ff7f0e"/>
     <use xlink:href="#meaa4b12385" x="452.588864" y="234.114444" style="fill: #ff7f0e; stroke: #ff7f0e"/>
     <use xlink:href="#meaa4b12385" x="477.746818" y="218.000588" style="fill: #ff7f0e; stroke: #ff7f0e"/>
     <use xlink:href="#meaa4b12385" x="502.904773" y="199.201088" style="fill: #ff7f0e; stroke: #ff7f0e"/>
     <use xlink:href="#meaa4b12385" x="528.062727" y="164.287732" style="fill: #ff7f0e; stroke: #ff7f0e"/>
     <use xlink:href="#meaa4b12385" x="553.220682" y="137.431304" style="fill: #ff7f0e; stroke: #ff7f0e"/>
     <use xlink:href="#meaa4b12385" x="578.378636" y="102.517948" style="fill: #ff7f0e; stroke: #ff7f0e"/>
     <use xlink:href="#meaa4b12385" x="603.536591" y="86.404091" style="fill: #ff7f0e; stroke: #ff7f0e"/>
     <use xlink:href="#meaa4b12385" x="628.694545" y="97.146662" style="fill: #ff7f0e; stroke: #ff7f0e"/>
     <use xlink:href="#meaa4b12385" x="653.8525" y="124.00309" style="fill: #ff7f0e; stroke: #ff7f0e"/>
     <use xlink:href="#meaa4b12385" x="679.010455" y="153.545161" style="fill: #ff7f0e; stroke: #ff7f0e"/>
    </g>
   </g>
   <g id="patch_3">
    <path d="M 45.03 303.135464 
L 45.03 25.44 
" style="fill: none; stroke: #cccccc; stroke-linejoin: miter; stroke-linecap: square"/>
   </g>
   <g id="patch_4">
    <path d="M 709.2 303.135464 
L 709.2 25.44 
" style="fill: none; stroke: #cccccc; stroke-linejoin: miter; stroke-linecap: square"/>
   </g>
   <g id="patch_5">
    <path d="M 45.03 303.135464 
L 709.2 303.135464 
" style="fill: none; stroke: #cccccc; stroke-linejoin: miter; stroke-linecap: square"/>
   </g>
   <g id="patch_6">
    <path d="M 45.03 25.44 
L 709.2 25.44 
" style="fill: none; stroke: #cccccc; stroke-linejoin: miter; stroke-linecap: square"/>
   </g>
   <g id="text_17">
    <!-- Center Pixel Time Series – t2m -->
    <g style="fill: #262626" transform="translate(294.421875 19.44) scale(0.12 -0.12)">
     <defs>
      <path id="ArialMT-43" d="M 3763 1606 
L 4369 1453 
Q 4178 706 3683 314 
Q 3188 -78 2472 -78 
Q 1731 -78 1267 223 
Q 803 525 561 1097 
Q 319 1669 319 2325 
Q 319 3041 592 3573 
Q 866 4106 1370 4382 
Q 1875 4659 2481 4659 
Q 3169 4659 3637 4309 
Q 4106 3959 4291 3325 
L 3694 3184 
Q 3534 3684 3231 3912 
Q 2928 4141 2469 4141 
Q 1941 4141 1586 3887 
Q 1231 3634 1087 3207 
Q 944 2781 944 2328 
Q 944 1744 1114 1308 
Q 1284 872 1643 656 
Q 2003 441 2422 441 
Q 2931 441 3284 734 
Q 3638 1028 3763 1606 
z
" transform="scale(0.015625)"/>
      <path id="ArialMT-6e" d="M 422 0 
L 422 3319 
L 928 3319 
L 928 2847 
Q 1294 3394 1984 3394 
Q 2284 3394 2536 3286 
Q 2788 3178 2913 3003 
Q 3038 2828 3088 2588 
Q 3119 2431 3119 2041 
L 3119 0 
L 2556 0 
L 2556 2019 
Q 2556 2363 2490 2533 
Q 2425 2703 2258 2804 
Q 2091 2906 1866 2906 
Q 1506 2906 1245 2678 
Q 984 2450 984 1813 
L 984 0 
L 422 0 
z
" transform="scale(0.015625)"/>
      <path id="ArialMT-74" d="M 1650 503 
L 1731 6 
Q 1494 -44 1306 -44 
Q 1000 -44 831 53 
Q 663 150 594 308 
Q 525 466 525 972 
L 525 2881 
L 113 2881 
L 113 3319 
L 525 3319 
L 525 4141 
L 1084 4478 
L 1084 3319 
L 1650 3319 
L 1650 2881 
L 1084 2881 
L 1084 941 
Q 1084 700 1114 631 
Q 1144 563 1211 522 
Q 1278 481 1403 481 
Q 1497 481 1650 503 
z
" transform="scale(0.015625)"/>
      <path id="ArialMT-72" d="M 416 0 
L 416 3319 
L 922 3319 
L 922 2816 
Q 1116 3169 1280 3281 
Q 1444 3394 1641 3394 
Q 1925 3394 2219 3213 
L 2025 2691 
Q 1819 2813 1613 2813 
Q 1428 2813 1281 2702 
Q 1134 2591 1072 2394 
Q 978 2094 978 1738 
L 978 0 
L 416 0 
z
" transform="scale(0.015625)"/>
      <path id="ArialMT-50" d="M 494 0 
L 494 4581 
L 2222 4581 
Q 2678 4581 2919 4538 
Q 3256 4481 3484 4323 
Q 3713 4166 3852 3881 
Q 3991 3597 3991 3256 
Q 3991 2672 3619 2267 
Q 3247 1863 2275 1863 
L 1100 1863 
L 1100 0 
L 494 0 
z
M 1100 2403 
L 2284 2403 
Q 2872 2403 3119 2622 
Q 3366 2841 3366 3238 
Q 3366 3525 3220 3729 
Q 3075 3934 2838 4000 
Q 2684 4041 2272 4041 
L 1100 4041 
L 1100 2403 
z
" transform="scale(0.015625)"/>
      <path id="ArialMT-78" d="M 47 0 
L 1259 1725 
L 138 3319 
L 841 3319 
L 1350 2541 
Q 1494 2319 1581 2169 
Q 1719 2375 1834 2534 
L 2394 3319 
L 3066 3319 
L 1919 1756 
L 3153 0 
L 2463 0 
L 1781 1031 
L 1600 1309 
L 728 0 
L 47 0 
z
" transform="scale(0.015625)"/>
      <path id="ArialMT-53" d="M 288 1472 
L 859 1522 
Q 900 1178 1048 958 
Q 1197 738 1509 602 
Q 1822 466 2213 466 
Q 2559 466 2825 569 
Q 3091 672 3220 851 
Q 3350 1031 3350 1244 
Q 3350 1459 3225 1620 
Q 3100 1781 2813 1891 
Q 2628 1963 1997 2114 
Q 1366 2266 1113 2400 
Q 784 2572 623 2826 
Q 463 3081 463 3397 
Q 463 3744 659 4045 
Q 856 4347 1234 4503 
Q 1613 4659 2075 4659 
Q 2584 4659 2973 4495 
Q 3363 4331 3572 4012 
Q 3781 3694 3797 3291 
L 3216 3247 
Q 3169 3681 2898 3903 
Q 2628 4125 2100 4125 
Q 1550 4125 1298 3923 
Q 1047 3722 1047 3438 
Q 1047 3191 1225 3031 
Q 1400 2872 2139 2705 
Q 2878 2538 3153 2413 
Q 3553 2228 3743 1945 
Q 3934 1663 3934 1294 
Q 3934 928 3725 604 
Q 3516 281 3123 101 
Q 2731 -78 2241 -78 
Q 1619 -78 1198 103 
Q 778 284 539 648 
Q 300 1013 288 1472 
z
" transform="scale(0.015625)"/>
      <path id="ArialMT-73" d="M 197 991 
L 753 1078 
Q 800 744 1014 566 
Q 1228 388 1613 388 
Q 2000 388 2187 545 
Q 2375 703 2375 916 
Q 2375 1106 2209 1216 
Q 2094 1291 1634 1406 
Q 1016 1563 777 1677 
Q 538 1791 414 1992 
Q 291 2194 291 2438 
Q 291 2659 392 2848 
Q 494 3038 669 3163 
Q 800 3259 1026 3326 
Q 1253 3394 1513 3394 
Q 1903 3394 2198 3281 
Q 2494 3169 2634 2976 
Q 2775 2784 2828 2463 
L 2278 2388 
Q 2241 2644 2061 2787 
Q 1881 2931 1553 2931 
Q 1166 2931 1000 2803 
Q 834 2675 834 2503 
Q 834 2394 903 2306 
Q 972 2216 1119 2156 
Q 1203 2125 1616 2013 
Q 2213 1853 2448 1751 
Q 2684 1650 2818 1456 
Q 2953 1263 2953 975 
Q 2953 694 2789 445 
Q 2625 197 2315 61 
Q 2006 -75 1616 -75 
Q 969 -75 630 194 
Q 291 463 197 991 
z
" transform="scale(0.015625)"/>
      <path id="ArialMT-2013" d="M -13 1431 
L -13 1884 
L 3547 1884 
L 3547 1431 
L -13 1431 
z
" transform="scale(0.015625)"/>
     </defs>
     <use xlink:href="#ArialMT-43"/>
     <use xlink:href="#ArialMT-65" transform="translate(72.216797 0)"/>
     <use xlink:href="#ArialMT-6e" transform="translate(127.832031 0)"/>
     <use xlink:href="#ArialMT-74" transform="translate(183.447266 0)"/>
     <use xlink:href="#ArialMT-65" transform="translate(211.230469 0)"/>
     <use xlink:href="#ArialMT-72" transform="translate(266.845703 0)"/>
     <use xlink:href="#ArialMT-20" transform="translate(300.146484 0)"/>
     <use xlink:href="#ArialMT-50" transform="translate(327.929688 0)"/>
     <use xlink:href="#ArialMT-69" transform="translate(394.628906 0)"/>
     <use xlink:href="#ArialMT-78" transform="translate(416.845703 0)"/>
     <use xlink:href="#ArialMT-65" transform="translate(466.845703 0)"/>
     <use xlink:href="#ArialMT-6c" transform="translate(522.460938 0)"/>
     <use xlink:href="#ArialMT-20" transform="translate(544.677734 0)"/>
     <use xlink:href="#ArialMT-54" transform="translate(570.710938 0)"/>
     <use xlink:href="#ArialMT-69" transform="translate(628.044922 0)"/>
     <use xlink:href="#ArialMT-6d" transform="translate(650.261719 0)"/>
     <use xlink:href="#ArialMT-65" transform="translate(733.5625 0)"/>
     <use xlink:href="#ArialMT-20" transform="translate(789.177734 0)"/>
     <use xlink:href="#ArialMT-53" transform="translate(816.960938 0)"/>
     <use xlink:href="#ArialMT-65" transform="translate(883.660156 0)"/>
     <use xlink:href="#ArialMT-72" transform="translate(939.275391 0)"/>
     <use xlink:href="#ArialMT-69" transform="translate(972.576172 0)"/>
     <use xlink:href="#ArialMT-65" transform="translate(994.792969 0)"/>
     <use xlink:href="#ArialMT-73" transform="translate(1050.408203 0)"/>
     <use xlink:href="#ArialMT-20" transform="translate(1100.408203 0)"/>
     <use xlink:href="#ArialMT-2013" transform="translate(1128.191406 0)"/>
     <use xlink:href="#ArialMT-20" transform="translate(1183.806641 0)"/>
     <use xlink:href="#ArialMT-74" transform="translate(1211.589844 0)"/>
     <use xlink:href="#ArialMT-32" transform="translate(1239.373047 0)"/>
     <use xlink:href="#ArialMT-6d" transform="translate(1294.988281 0)"/>
    </g>
   </g>
   <g id="legend_1">
    <g id="line2d_31">
     <path d="M 572.5625 38.230625 
L 582.5625 38.230625 
L 592.5625 38.230625 
" style="fill: none; stroke: #1f77b4; stroke-width: 1.5; stroke-linecap: round"/>
     <g>
      <use xlink:href="#md32ad6af09" x="582.5625" y="38.230625" style="fill: #1f77b4; stroke: #1f77b4"/>
     </g>
    </g>
    <g id="text_18">
     <!-- Prediction @center -->
     <g style="fill: #262626" transform="translate(600.5625 41.730625) scale(0.1 -0.1)">
      <defs>
       <path id="ArialMT-64" d="M 2575 0 
L 2575 419 
Q 2259 -75 1647 -75 
Q 1250 -75 917 144 
Q 584 363 401 755 
Q 219 1147 219 1656 
Q 219 2153 384 2558 
Q 550 2963 881 3178 
Q 1213 3394 1622 3394 
Q 1922 3394 2156 3267 
Q 2391 3141 2538 2938 
L 2538 4581 
L 3097 4581 
L 3097 0 
L 2575 0 
z
M 797 1656 
Q 797 1019 1065 703 
Q 1334 388 1700 388 
Q 2069 388 2326 689 
Q 2584 991 2584 1609 
Q 2584 2291 2321 2609 
Q 2059 2928 1675 2928 
Q 1300 2928 1048 2622 
Q 797 2316 797 1656 
z
" transform="scale(0.015625)"/>
       <path id="ArialMT-63" d="M 2588 1216 
L 3141 1144 
Q 3050 572 2676 248 
Q 2303 -75 1759 -75 
Q 1078 -75 664 370 
Q 250 816 250 1647 
Q 250 2184 428 2587 
Q 606 2991 970 3192 
Q 1334 3394 1763 3394 
Q 2303 3394 2647 3120 
Q 2991 2847 3088 2344 
L 2541 2259 
Q 2463 2594 2264 2762 
Q 2066 2931 1784 2931 
Q 1359 2931 1093 2626 
Q 828 2322 828 1663 
Q 828 994 1084 691 
Q 1341 388 1753 388 
Q 2084 388 2306 591 
Q 2528 794 2588 1216 
z
" transform="scale(0.015625)"/>
       <path id="ArialMT-6f" d="M 213 1659 
Q 213 2581 725 3025 
Q 1153 3394 1769 3394 
Q 2453 3394 2887 2945 
Q 3322 2497 3322 1706 
Q 3322 1066 3130 698 
Q 2938 331 2570 128 
Q 2203 -75 1769 -75 
Q 1072 -75 642 372 
Q 213 819 213 1659 
z
M 791 1659 
Q 791 1022 1069 705 
Q 1347 388 1769 388 
Q 2188 388 2466 706 
Q 2744 1025 2744 1678 
Q 2744 2294 2464 2611 
Q 2184 2928 1769 2928 
Q 1347 2928 1069 2612 
Q 791 2297 791 1659 
z
" transform="scale(0.015625)"/>
       <path id="ArialMT-40" d="M 3628 509 
Q 3425 275 3173 133 
Q 2922 -9 2669 -9 
Q 2391 -9 2128 153 
Q 1866 316 1702 653 
Q 1538 991 1538 1394 
Q 1538 1891 1792 2389 
Q 2047 2888 2425 3138 
Q 2803 3388 3159 3388 
Q 3431 3388 3678 3245 
Q 3925 3103 4103 2813 
L 4209 3297 
L 4769 3297 
L 4319 1200 
Q 4225 763 4225 716 
Q 4225 631 4289 570 
Q 4353 509 4444 509 
Q 4609 509 4878 700 
Q 5234 950 5442 1370 
Q 5650 1791 5650 2238 
Q 5650 2759 5383 3212 
Q 5116 3666 4586 3937 
Q 4056 4209 3416 4209 
Q 2684 4209 2079 3867 
Q 1475 3525 1142 2886 
Q 809 2247 809 1516 
Q 809 750 1142 197 
Q 1475 -356 2104 -620 
Q 2734 -884 3500 -884 
Q 4319 -884 4872 -609 
Q 5425 -334 5700 59 
L 6266 59 
Q 6106 -269 5718 -609 
Q 5331 -950 4797 -1148 
Q 4263 -1347 3509 -1347 
Q 2816 -1347 2230 -1169 
Q 1644 -991 1231 -633 
Q 819 -275 609 191 
Q 347 781 347 1466 
Q 347 2228 659 2919 
Q 1041 3766 1742 4216 
Q 2444 4666 3444 4666 
Q 4219 4666 4836 4348 
Q 5453 4031 5809 3403 
Q 6113 2863 6113 2228 
Q 6113 1322 5475 619 
Q 4906 -13 4231 -13 
Q 4016 -13 3883 53 
Q 3750 119 3688 241 
Q 3647 319 3628 509 
z
M 2116 1356 
Q 2116 928 2319 690 
Q 2522 453 2784 453 
Q 2959 453 3153 558 
Q 3347 663 3523 869 
Q 3700 1075 3812 1392 
Q 3925 1709 3925 2028 
Q 3925 2453 3714 2687 
Q 3503 2922 3200 2922 
Q 3000 2922 2823 2820 
Q 2647 2719 2481 2494 
Q 2316 2269 2216 1947 
Q 2116 1625 2116 1356 
z
" transform="scale(0.015625)"/>
      </defs>
      <use xlink:href="#ArialMT-50"/>
      <use xlink:href="#ArialMT-72" transform="translate(66.699219 0)"/>
      <use xlink:href="#ArialMT-65" transform="translate(100 0)"/>
      <use xlink:href="#ArialMT-64" transform="translate(155.615234 0)"/>
      <use xlink:href="#ArialMT-69" transform="translate(211.230469 0)"/>
      <use xlink:href="#ArialMT-63" transform="translate(233.447266 0)"/>
      <use xlink:href="#ArialMT-74" transform="translate(283.447266 0)"/>
      <use xlink:href="#ArialMT-69" transform="translate(311.230469 0)"/>
      <use xlink:href="#ArialMT-6f" transform="translate(333.447266 0)"/>
      <use xlink:href="#ArialMT-6e" transform="translate(389.0625 0)"/>
      <use xlink:href="#ArialMT-20" transform="translate(444.677734 0)"/>
      <use xlink:href="#ArialMT-40" transform="translate(472.460938 0)"/>
      <use xlink:href="#ArialMT-63" transform="translate(573.974609 0)"/>
      <use xlink:href="#ArialMT-65" transform="translate(623.974609 0)"/>
      <use xlink:href="#ArialMT-6e" transform="translate(679.589844 0)"/>
      <use xlink:href="#ArialMT-74" transform="translate(735.205078 0)"/>
      <use xlink:href="#ArialMT-65" transform="translate(762.988281 0)"/>
      <use xlink:href="#ArialMT-72" transform="translate(818.603516 0)"/>
     </g>
    </g>
    <g id="line2d_32">
     <path d="M 572.5625 52.625938 
L 582.5625 52.625938 
L 592.5625 52.625938 
" style="fill: none; stroke: #ff7f0e; stroke-width: 1.5; stroke-linecap: round"/>
     <g>
      <use xlink:href="#meaa4b12385" x="582.5625" y="52.625938" style="fill: #ff7f0e; stroke: #ff7f0e"/>
     </g>
    </g>
    <g id="text_19">
     <!-- Ground Truth @center -->
     <g style="fill: #262626" transform="translate(600.5625 56.125938) scale(0.1 -0.1)">
      <defs>
       <path id="ArialMT-47" d="M 2638 1797 
L 2638 2334 
L 4578 2338 
L 4578 638 
Q 4131 281 3656 101 
Q 3181 -78 2681 -78 
Q 2006 -78 1454 211 
Q 903 500 622 1047 
Q 341 1594 341 2269 
Q 341 2938 620 3517 
Q 900 4097 1425 4378 
Q 1950 4659 2634 4659 
Q 3131 4659 3532 4498 
Q 3934 4338 4162 4050 
Q 4391 3763 4509 3300 
L 3963 3150 
Q 3859 3500 3706 3700 
Q 3553 3900 3268 4020 
Q 2984 4141 2638 4141 
Q 2222 4141 1919 4014 
Q 1616 3888 1430 3681 
Q 1244 3475 1141 3228 
Q 966 2803 966 2306 
Q 966 1694 1177 1281 
Q 1388 869 1791 669 
Q 2194 469 2647 469 
Q 3041 469 3416 620 
Q 3791 772 3984 944 
L 3984 1797 
L 2638 1797 
z
" transform="scale(0.015625)"/>
       <path id="ArialMT-68" d="M 422 0 
L 422 4581 
L 984 4581 
L 984 2938 
Q 1378 3394 1978 3394 
Q 2347 3394 2619 3248 
Q 2891 3103 3008 2847 
Q 3125 2591 3125 2103 
L 3125 0 
L 2563 0 
L 2563 2103 
Q 2563 2525 2380 2717 
Q 2197 2909 1863 2909 
Q 1613 2909 1392 2779 
Q 1172 2650 1078 2428 
Q 984 2206 984 1816 
L 984 0 
L 422 0 
z
" transform="scale(0.015625)"/>
      </defs>
      <use xlink:href="#ArialMT-47"/>
      <use xlink:href="#ArialMT-72" transform="translate(77.783203 0)"/>
      <use xlink:href="#ArialMT-6f" transform="translate(111.083984 0)"/>
      <use xlink:href="#ArialMT-75" transform="translate(166.699219 0)"/>
      <use xlink:href="#ArialMT-6e" transform="translate(222.314453 0)"/>
      <use xlink:href="#ArialMT-64" transform="translate(277.929688 0)"/>
      <use xlink:href="#ArialMT-20" transform="translate(333.544922 0)"/>
      <use xlink:href="#ArialMT-54" transform="translate(359.578125 0)"/>
      <use xlink:href="#ArialMT-72" transform="translate(416.912109 0)"/>
      <use xlink:href="#ArialMT-75" transform="translate(450.212891 0)"/>
      <use xlink:href="#ArialMT-74" transform="translate(505.828125 0)"/>
      <use xlink:href="#ArialMT-68" transform="translate(533.611328 0)"/>
      <use xlink:href="#ArialMT-20" transform="translate(589.226562 0)"/>
      <use xlink:href="#ArialMT-40" transform="translate(617.009766 0)"/>
      <use xlink:href="#ArialMT-63" transform="translate(718.523438 0)"/>
      <use xlink:href="#ArialMT-65" transform="translate(768.523438 0)"/>
      <use xlink:href="#ArialMT-6e" transform="translate(824.138672 0)"/>
      <use xlink:href="#ArialMT-74" transform="translate(879.753906 0)"/>
      <use xlink:href="#ArialMT-65" transform="translate(907.537109 0)"/>
      <use xlink:href="#ArialMT-72" transform="translate(963.152344 0)"/>
     </g>
    </g>
   </g>
  </g>
 </g>
 <defs>
  <clipPath id="p2b500528f2">
   <rect x="45.03" y="25.44" width="664.17" height="277.695464"/>
  </clipPath>
 </defs>
</svg>
